HIERARCHY
ROOT Hips
{
	OFFSET 48.486000 -11.641015 94.183296
	CHANNELS 6 Xposition Yposition Zposition Xrotation Yrotation Zrotation
	JOINT spine
	{
		OFFSET 0.000000 -0.448574 7.800591
		CHANNELS 3 Xrotation Yrotation Zrotation
		JOINT spine1
		{
			OFFSET 0.000000 -0.000002 10.136398
			CHANNELS 3 Xrotation Yrotation Zrotation
			JOINT spine2
			{
				OFFSET 0.000000 -0.000002 9.712509
				CHANNELS 3 Xrotation Yrotation Zrotation
				JOINT Neck
				{
					OFFSET 0.000000 -1.188873 24.936096
					CHANNELS 3 Xrotation Yrotation Zrotation
					JOINT Head
					{
						OFFSET 0.000000 -0.000001 7.533844
						CHANNELS 3 Xrotation Yrotation Zrotation
						End Site
						{
							OFFSET 0.000000 6.014017 18.236099
						}
					}
				}
				JOINT RightShoulder
				{
					OFFSET -4.089649 0.569455 10.488800
					CHANNELS 3 Xrotation Yrotation Zrotation
					JOINT RightArm
					{
						OFFSET 0.000000 -0.000002 13.757004
						CHANNELS 3 Xrotation Yrotation Zrotation
						JOINT RightArmRoll
						{
							OFFSET 0.000000 -0.000001 6.944778
							CHANNELS 3 Xrotation Yrotation Zrotation
							JOINT RightForeArm
							{
								OFFSET 0.000000 -0.000004 20.227692
								CHANNELS 3 Xrotation Yrotation Zrotation
								JOINT RightForeArmRoll
								{
									OFFSET 0.000000 -0.000001 7.793121
									CHANNELS 3 Xrotation Yrotation Zrotation
									JOINT RightHand
									{
										OFFSET 0.000000 -0.000003 15.639099
										CHANNELS 3 Xrotation Yrotation Zrotation
										End Site
										{
											OFFSET 0.000000 0.000000 0.100006
										}
									}
								}
							}
						}
					}
				}
				JOINT LeftShoulder
				{
					OFFSET 4.089649 0.569455 10.488800
					CHANNELS 3 Xrotation Yrotation Zrotation
					JOINT LeftArm
					{
						OFFSET 0.000000 -0.000002 13.757004
						CHANNELS 3 Xrotation Yrotation Zrotation
						JOINT LeftArmRoll
						{
							OFFSET 0.000000 -0.000001 6.944778
							CHANNELS 3 Xrotation Yrotation Zrotation
							JOINT LeftForeArm
							{
								OFFSET 0.000000 -0.000004 20.227692
								CHANNELS 3 Xrotation Yrotation Zrotation
								JOINT LeftForeArmRoll
								{
									OFFSET 0.000000 -0.000001 7.793121
									CHANNELS 3 Xrotation Yrotation Zrotation
									JOINT LeftHand
									{
										OFFSET 0.000000 -0.000003 15.639099
										CHANNELS 3 Xrotation Yrotation Zrotation
										End Site
										{
											OFFSET 0.000000 0.000000 0.100006
										}
									}
								}
							}
						}
					}
				}
			}
		}
	}
	JOINT RightUpLeg
	{
		OFFSET -6.914162 1.063581 -1.267883
		CHANNELS 3 Xrotation Yrotation Zrotation
		JOINT RightUpLegRoll
		{
			OFFSET 0.000000 -0.000003 18.337799
			CHANNELS 3 Xrotation Yrotation Zrotation
			JOINT RightLeg
			{
				OFFSET 0.000000 0.000004 -22.708504
				CHANNELS 3 Xrotation Yrotation Zrotation
				JOINT RightLegRoll
				{
					OFFSET 0.000000 -0.000004 22.782799
					CHANNELS 3 Xrotation Yrotation Zrotation
					JOINT RightFoot
					{
						OFFSET 0.000000 -0.000003 18.962898
						CHANNELS 3 Xrotation Yrotation Zrotation
						JOINT RightToeBase
						{
							OFFSET 0.000000 -0.000003 15.852005
							CHANNELS 3 Xrotation Yrotation Zrotation
							End Site
							{
								OFFSET 0.006718 0.884892 7.677017
							}
						}
					}
				}
			}
		}
	}
	JOINT LeftUpLeg
	{
		OFFSET 6.914162 1.063581 -1.267883
		CHANNELS 3 Xrotation Yrotation Zrotation
		JOINT LeftUpLegRoll
		{
			OFFSET 0.000000 -0.000003 18.337898
			CHANNELS 3 Xrotation Yrotation Zrotation
			JOINT LeftLeg
			{
				OFFSET 0.000000 -0.000004 22.708405
				CHANNELS 3 Xrotation Yrotation Zrotation
				JOINT LeftLegRoll
				{
					OFFSET 0.000000 -0.000004 22.993393
					CHANNELS 3 Xrotation Yrotation Zrotation
					JOINT LeftFoot
					{
						OFFSET 0.000000 -0.000003 18.752197
						CHANNELS 3 Xrotation Yrotation Zrotation
						JOINT LeftToeBase
						{
							OFFSET 0.000000 -0.000003 15.852005
							CHANNELS 3 Xrotation Yrotation Zrotation
							End Site
							{
								OFFSET -0.030113 0.884892 7.677017
							}
						}
					}
				}
			}
		}
	}
}
MOTION
Frames: 4
Frame Time: 0.041667
49.666100 -10.996321 94.167984 -4.394794 1.146440 -2.196327 -1.064303 -0.057815 0.344834 1.891625 -0.130892 0.709441 3.536638 -0.122625 0.710868 18.949897 -0.179836 -0.117918 -14.396497 -0.990960 -0.137170 -24.663895 -79.938847 -28.403338 87.875855 -82.168432 98.110757 0.000001 0.000006 -0.000004 25.180901 -12.434773 1.701854 -0.000008 0.000004 -3.009090 -5.000397 -7.998683 0.000236 3.658912 65.527851 -3.313584 -0.057479 106.189012 -14.629172 0.000000 -0.000001 -0.000001 21.543359 4.106276 0.474273 -0.000008 0.000011 3.011931 -5.000341 7.999550 -0.000077 -2.017509 -179.947030 -0.663573 -179.999991 0.000005 -1.089998 168.196277 -2.186806 -0.706869 -0.000000 0.000003 0.303241 71.558840 6.896065 1.931878 25.456959 -7.355619 0.000011 0.342219 -179.372010 7.034632 -0.000004 -0.000004 -1.494420 -12.912989 4.759180 0.724142 0.000002 -0.000001 -0.308949 74.789328 -7.854980 1.256861 25.456957 7.355616 -0.000002 
49.666199 -10.999220 94.181595 -4.394718 1.148644 -2.186380 -1.065563 -0.057844 0.345569 1.887955 -0.130826 0.708768 3.532968 -0.122552 0.710206 18.951511 -0.193205 -0.118430 -14.391446 -0.979466 -0.137783 -24.594869 -79.906335 -28.331614 88.274184 -82.088321 98.663503 -0.000000 0.000005 -0.000003 25.004269 -12.373362 1.663352 -0.000007 0.000004 -3.009090 -5.000390 -7.998683 0.000236 3.696993 65.533438 -3.355678 -0.116444 106.189026 -14.605548 0.000000 -0.000001 -0.000001 21.610602 4.072408 0.475621 -0.000006 0.000011 3.011931 -5.000339 7.999550 -0.000077 -2.009848 -179.953027 -0.672729 -179.999991 0.000005 -1.089998 168.213967 -2.177158 -0.706161 -0.000001 0.000003 0.303189 71.555329 6.893781 1.938524 25.456959 -7.355619 0.000012 0.350907 -179.379018 7.031323 -0.000005 -0.000004 -1.493631 -12.896522 4.758810 0.723988 0.000001 -0.000001 -0.308949 74.780271 -7.853601 1.250714 25.456960 7.355616 -0.000001 
49.659599 -10.979819 94.175690 -4.394602 1.150957 -2.176384 -1.066790 -0.057888 0.346344 1.884295 -0.130808 0.708080 3.529318 -0.122525 0.709530 18.953628 -0.206421 -0.118959 -14.387097 -0.967800 -0.138430 -24.525186 -79.873339 -28.259194 88.656941 -82.010122 99.195575 -0.000001 0.000006 -0.000004 24.832906 -12.314801 1.626933 -0.000009 0.000005 -3.009090 -5.000390 -7.998683 0.000236 3.737615 65.539750 -3.400535 -0.170999 106.187066 -14.583653 0.000000 -0.000000 -0.000001 21.681221 4.040962 0.476761 -0.000007 0.000011 3.011932 -5.000341 7.999549 -0.000076 -2.001756 -179.959024 -0.681743 -179.999991 0.000005 -1.089998 168.232641 -2.168492 -0.705612 -0.000001 0.000003 0.303111 71.551621 6.891498 1.945082 25.456957 -7.355618 0.000012 0.359995 -179.385015 7.027893 -0.000004 -0.000004 -1.492831 -12.879354 4.758462 0.723828 0.000003 -0.000001 -0.308950 74.771064 -7.852135 1.244265 25.456960 7.355615 -0.000002 
49.659698 -10.982121 94.188896 -4.394435 1.153360 -2.166343 -1.068024 -0.057943 0.347149 1.880645 -0.130823 0.707382 3.525668 -0.122531 0.708844 18.956142 -0.219528 -0.119499 -14.383146 -0.956005 -0.139098 -24.455359 -79.840048 -28.186598 89.025615 -81.933214 99.709984 0.000000 0.000006 -0.000002 24.665343 -12.258059 1.592019 -0.000008 0.000004 -3.009090 -5.000393 -7.998683 0.000236 3.779969 65.546518 -3.447284 -0.222483 106.184115 -14.562909 -0.000000 -0.000000 -0.000002 21.754200 4.011210 0.477771 -0.000006 0.000012 3.011931 -5.000341 7.999549 -0.000076 -1.993388 -179.965021 -0.690662 -179.999991 0.000005 -1.089998 168.252134 -2.159832 -0.705050 -0.000001 0.000003 0.303016 71.547591 6.889255 1.951664 25.456962 -7.355619 0.000012 0.369352 -179.392009 7.024368 -0.000004 -0.000004 -1.492021 -12.861784 4.758130 0.723673 0.000003 -0.000001 -0.308950 74.761618 -7.850677 1.237604 25.456957 7.355617 -0.000002 
